<?xml version="1.0" encoding="UTF-8"?>
<svg version="1.1" xmlns="http://www.w3.org/2000/svg" width="512" height="512">
<path d="M0 0 C1.63508443 0.37057474 3.2704225 0.74003202 4.90600586 1.10839844 C8.10892619 1.8325744 11.30943235 2.56624474 14.50830078 3.30810547 C18.26804587 4.17800007 22.0356612 5.00537028 25.80859375 5.81640625 C27.68510944 6.23080476 29.56143377 6.64607144 31.4375 7.0625 C32.6742749 7.32293091 32.6742749 7.32293091 33.93603516 7.58862305 C38.29762294 8.59568808 41.3050915 9.52239622 43.875 13.3125 C44.125 16.0625 44.125 16.0625 43.875 18.3125 C44.57625 18.43367188 45.2775 18.55484375 46 18.6796875 C51.69470105 19.68554502 57.28394019 20.83561628 62.875 22.3125 C63.184375 21.673125 63.49375 21.03375 63.8125 20.375 C64.875 18.3125 64.875 18.3125 65.875 17.3125 C73.5038543 16.54797339 80.63330799 18.08107386 88.015625 19.83203125 C89.14143982 20.09126877 90.26725464 20.35050629 91.42718506 20.61759949 C93.79155058 21.16467768 96.1546814 21.71711716 98.51660156 22.2746582 C102.12511578 23.12502728 105.73783039 23.95532192 109.3515625 24.78320312 C111.65652538 25.31912951 113.96122269 25.85619962 116.265625 26.39453125 C117.34072327 26.64153275 118.41582153 26.88853424 119.52349854 27.14302063 C127.44331341 29.02821436 135.55369779 31.24166676 140.26171875 38.4296875 C143.82986297 44.66627195 145.77505819 49.99952719 144.875 57.3125 C142.3572143 66.30263699 137.98790986 71.60701228 129.875 76.3125 C116.78103354 80.62465571 101.73491608 79.5510392 88.0300293 79.86474609 C85.81028048 79.91669513 83.5907046 79.97374688 81.37109375 80.03125 C79.42481079 80.07668945 79.42481079 80.07668945 77.43920898 80.12304688 C74.17383342 80.29661571 71.08392351 80.70098174 67.875 81.3125 C71.43496182 83.27547379 74.99839831 85.23205438 78.5625 87.1875 C79.56990234 87.74308594 80.57730469 88.29867187 81.61523438 88.87109375 C82.59169922 89.40605469 83.56816406 89.94101562 84.57421875 90.4921875 C85.91746216 91.23057861 85.91746216 91.23057861 87.2878418 91.98388672 C88.141604 92.4223291 88.99536621 92.86077148 89.875 93.3125 C90.58993118 93.70523605 91.30486237 94.09797211 92.04145813 94.50260925 C95.95080242 95.61998881 98.99829959 94.66460247 102.79882812 93.59936523 C103.58156601 93.3931102 104.36430389 93.18685516 105.17076111 92.97434998 C107.75376489 92.2890029 110.32987871 91.58093462 112.90625 90.87109375 C114.70292912 90.38609077 116.49984869 89.9019777 118.29699707 89.41871643 C122.0623602 88.40225635 125.82438317 87.37441503 129.58447266 86.33862305 C134.39714833 85.01395604 139.21717277 83.71873849 144.04013824 82.43211269 C147.75300273 81.43796859 151.46135303 80.4277707 155.16856384 79.41276741 C156.94375257 78.92890543 158.72033543 78.45012791 160.49830627 77.97659111 C162.98740694 77.3111651 165.46957277 76.62419825 167.95117188 75.93139648 C168.68275009 75.74051453 169.41432831 75.54963257 170.16807556 75.35296631 C174.98056624 73.97621568 177.63013902 72.08625206 180.875 68.3125 C182.11636719 66.90677734 182.11636719 66.90677734 183.3828125 65.47265625 C184.2580176 64.44248426 185.13029756 63.40982171 186 62.375 C186.47228027 61.81723877 186.94456055 61.25947754 187.43115234 60.68481445 C190.4213116 57.12700994 193.29330321 53.49680083 196.11621094 49.80541992 C202.84150086 41.03098115 209.18785053 32.90294472 220.5 30.5625 C227.61230714 29.85126929 234.45546479 30.89310119 240.3125 35.125 C246.32471756 40.20471034 250.27757885 45.55679106 251.26953125 53.453125 C251.91441857 67.07074568 245.25860708 76.2149373 237.6328125 86.79296875 C235.7796364 88.93716725 235.7796364 88.93716725 235.875 90.3125 C237.07125 89.9825 238.2675 89.6525 239.5 89.3125 C248.89888849 87.28470831 258.25369489 86.79670013 266.75390625 91.765625 C272.54340418 95.98780029 276.37894445 101.25260152 277.875 108.3125 C278.96344912 117.38290935 276.97449014 123.77024916 271.89453125 131.21484375 C268.22334122 135.49643903 263.23130262 137.61159312 258.25 140.0625 C256.36152185 141.01471856 254.47351935 141.96788093 252.5859375 142.921875 C251.10207047 143.66525116 251.10207047 143.66525116 249.58822632 144.42364502 C246.23377244 146.11834855 242.91222555 147.87138125 239.59257507 149.63307953 C229.39636942 155.04103558 219.11150368 160.25563736 208.77923584 165.39796448 C205.90666423 166.82770522 203.03546434 168.26017033 200.16455078 169.6932373 C193.04206358 173.24789468 185.91736935 176.79811931 178.79272461 180.34844971 C172.73893829 183.36537255 166.68603352 186.38405153 160.63421631 189.40492249 C157.84438578 190.79666447 155.0533369 192.18593941 152.26220703 193.57507324 C142.83097124 198.27751947 133.45107553 203.05974942 124.14987183 208.01526642 C111.5975307 214.68887018 99.2009285 219.6632409 84.87695312 215.42553711 C75.70758441 212.24054866 66.76284911 208.45187874 57.81433105 204.69989014 C53.3092317 202.81148854 48.79878772 200.93591483 44.2890625 199.05859375 C43.35239746 198.66835022 42.41573242 198.27810669 41.45068359 197.8760376 C25.75142654 191.33993684 10.00133581 184.92698052 -5.74560547 178.50683594 C-10.24196323 176.67342516 -14.7365148 174.83562838 -19.23068237 172.99685669 C-22.65591454 171.59636275 -26.0824587 170.19910273 -29.50939941 168.80279541 C-31.10796369 168.15082453 -32.70604063 167.49765726 -34.30358887 166.84320068 C-36.49917735 165.94409005 -38.696598 165.04961044 -40.89453125 164.15625 C-41.52790909 163.89566803 -42.16128693 163.63508606 -42.81385803 163.36660767 C-49.54280909 160.64372008 -55.64419792 158.94235178 -62.92578125 159 C-64.02410027 159.00519653 -64.02410027 159.00519653 -65.14460754 159.01049805 C-73.68604353 159.17465723 -81.94393439 160.71098065 -90.3125 162.3125 C-92.6322461 162.74522885 -94.95268378 163.17355913 -97.27424622 163.59643555 C-98.69901854 163.85705634 -100.12270475 164.12372035 -101.54496765 164.39770508 C-105.4585722 165.12611863 -109.14635981 165.4418992 -113.125 165.3125 C-113.2075 166.50875 -113.29 167.705 -113.375 168.9375 C-114.07775588 174.46194209 -116.50591249 177.85532124 -120.625 181.5625 C-125.48852463 184.96696724 -129.03117358 185.61031036 -134.95117188 185.60302734 C-135.73537003 185.60974457 -136.51956818 185.61646179 -137.32752991 185.62338257 C-139.91633459 185.64236034 -142.50488012 185.64628627 -145.09375 185.6484375 C-146.89449165 185.65486429 -148.69523224 185.66159256 -150.49597168 185.66860962 C-154.26866071 185.68058089 -158.04125816 185.68429047 -161.81396484 185.68310547 C-166.64970398 185.68290199 -171.48485731 185.71023432 -176.32045746 185.74464989 C-180.03849998 185.766876 -183.7564004 185.77094438 -187.47450256 185.76988602 C-189.25751266 185.77224729 -191.04052636 185.78110034 -192.82347107 185.79655075 C-195.31567611 185.81612972 -197.80660286 185.81040594 -200.29882812 185.79833984 C-201.03557266 185.80957886 -201.7723172 185.82081787 -202.53138733 185.83239746 C-205.72820765 185.79303235 -207.71018572 185.61916065 -210.31382751 183.69436073 C-212.70825636 180.54546349 -212.62792888 178.64402982 -212.63293457 174.70825195 C-212.63917453 174.04612103 -212.6454145 173.38399012 -212.65184355 172.70179462 C-212.66779099 170.48442728 -212.65516373 168.26815662 -212.64257812 166.05078125 C-212.64799852 164.46063597 -212.65512071 162.87049572 -212.66381836 161.28036499 C-212.68206471 156.9621641 -212.67497889 152.64434517 -212.66230202 148.32613754 C-212.6521811 143.80896722 -212.66156517 139.2918298 -212.66784668 134.7746582 C-212.67512574 127.18857954 -212.66552862 119.60265659 -212.64648438 112.01660156 C-212.6247151 103.24370373 -212.63176629 94.47117773 -212.65379 85.69828892 C-212.67193665 78.16866401 -212.67450593 70.63915109 -212.66403532 63.10951138 C-212.65779633 58.61124514 -212.65697584 54.11315372 -212.67018127 49.61489868 C-212.68172853 45.38601891 -212.67373496 41.15761893 -212.65060425 36.92879105 C-212.64531109 35.37597068 -212.64684134 33.82311 -212.65565491 32.27030563 C-212.66657099 30.1519064 -212.65289757 28.03504876 -212.63293457 25.91674805 C-212.63142647 24.73098679 -212.62991837 23.54522552 -212.62836456 22.3235321 C-212.01880505 18.6772618 -211.06818907 17.49168919 -208.125 15.3125 C-205.40306845 14.91250684 -203.08326028 14.75474392 -200.36230469 14.77905273 C-199.58453171 14.77043716 -198.80675873 14.76182159 -198.00541687 14.75294495 C-195.43556365 14.73025399 -192.86679876 14.7370318 -190.296875 14.74609375 C-188.50571367 14.74085764 -186.7145551 14.73458121 -184.92340088 14.72731018 C-181.16738932 14.71689879 -177.41175638 14.7214751 -173.65576172 14.73608398 C-168.85608512 14.75322895 -164.05761045 14.72983412 -159.25806808 14.69459438 C-155.5569677 14.67256251 -151.85615196 14.67407655 -148.15500641 14.6823597 C-146.38647396 14.68317691 -144.61792012 14.67635772 -142.84944916 14.66158867 C-125.76219298 14.54081683 -125.76219298 14.54081683 -119.125 20.3125 C-115.54405779 23.89344221 -114.82344701 26.38268466 -114.125 31.3125 C-113.13097168 30.84054199 -112.13694336 30.36858398 -111.11279297 29.88232422 C-109.69760689 29.21057882 -108.28240355 28.53886977 -106.8671875 27.8671875 C-106.1046315 27.50525803 -105.3420755 27.14332855 -104.55641174 26.77043152 C-100.3048074 24.75320905 -96.05198261 22.73861126 -91.79711914 20.72827148 C-90.9297966 20.31845535 -90.06247406 19.90863922 -89.16886902 19.48640442 C-87.39986895 18.65055023 -85.63083586 17.81476594 -83.86177063 16.97904968 C-79.05053122 14.70394122 -74.24657894 12.41477552 -69.45251465 10.10369873 C-66.78210631 8.81817073 -64.10702025 7.54259267 -61.43096924 6.26885986 C-59.61942392 5.40223192 -57.81422965 4.52236684 -56.00927734 3.64208984 C-36.87602746 -5.43234817 -20.01812908 -4.66828272 0 0 Z " fill="#020101" transform="translate(212.125,295.6875)"/>
<path d="M0 0 C4.68190605 1.14809035 9.37365488 2.24528617 14.07421875 3.31396484 C14.75419922 3.47735352 15.43417969 3.64074219 16.13476562 3.80908203 C20.349538 4.77757374 24.25515881 5.22092975 28.57421875 4.87646484 C31.04630671 2.51813712 31.04630671 2.51813712 32.57421875 -0.12353516 C38.98015161 0.98337236 45.28785731 2.21591654 51.57421875 3.87646484 C52.00734375 5.54708984 52.00734375 5.54708984 52.44921875 7.25146484 C53.26663204 10.87937576 53.26663204 10.87937576 55.57421875 12.87646484 C57.49603942 13.52716687 57.49603942 13.52716687 59.74169922 13.97387695 C61.03477493 14.25943703 61.03477493 14.25943703 62.35397339 14.55076599 C63.29032623 14.74977005 64.22667908 14.94877411 65.19140625 15.15380859 C66.15893829 15.36582413 67.12647034 15.57783966 68.12332153 15.79627991 C71.23047937 16.4758292 74.33970835 17.14527103 77.44921875 17.81396484 C111.65052125 25.23698196 111.65052125 25.23698196 115.82421875 28.12646484 C118.11012509 31.71860338 118.24717288 33.68919467 117.57421875 37.87646484 C115.76489668 41.00798381 114.42857177 42.49297684 111.125 43.97583008 C106.2117709 45.22204172 101.43880417 45.32662802 96.38671875 45.47412109 C95.29319092 45.51331161 94.19966309 45.55250214 93.07299805 45.59288025 C89.57363461 45.71658554 86.07401177 45.82814772 82.57421875 45.93896484 C80.28252331 46.01689934 77.99085607 46.09566773 75.69921875 46.17529297 C74.00889526 46.2335878 74.00889526 46.2335878 72.28442383 46.2930603 C70.02379589 46.3719435 67.76321543 46.45219925 65.50268555 46.53384399 C60.0539868 46.72950974 54.60729519 46.90190126 49.15625 47.01660156 C47.17056464 47.07246039 45.1848871 47.12859829 43.19921875 47.18505859 C41.84437378 47.20089745 41.84437378 47.20089745 40.4621582 47.21705627 C35.26418562 47.38713865 32.31536613 47.90475622 28.57421875 51.87646484 C27.00209724 55.02070786 27.05628125 58.45437777 27.57421875 61.87646484 C29.74569444 66.47045388 32.18909325 68.13950872 36.65625 70.44287109 C37.25800552 70.75825836 37.85976105 71.07364563 38.47975159 71.39859009 C40.44265653 72.42425949 42.41450564 73.43132875 44.38671875 74.43896484 C45.75746015 75.15205372 47.12740886 75.86666832 48.49658203 76.58276367 C51.2425772 78.01830285 53.99118814 79.44862303 56.74169922 80.87548828 C61.85011432 83.5333739 66.903102 86.28998809 71.94921875 89.06396484 C73.69125483 90.01736657 75.43344277 90.97049087 77.17578125 91.92333984 C78.04364258 92.39835937 78.91150391 92.87337891 79.80566406 93.36279297 C84.97385645 96.18843608 90.14808891 99.00289387 95.32421875 101.81396484 C96.30052246 102.34594482 97.27682617 102.8779248 98.28271484 103.42602539 C100.14770049 104.43808409 102.01755513 105.44123096 103.89257812 106.43457031 C105.66383636 107.38696026 107.4162659 108.37533143 109.14648438 109.40039062 C115.41237076 112.94479206 119.58116489 113.39226581 126.57421875 111.87646484 C127.46351074 111.69438477 128.35280273 111.51230469 129.26904297 111.32470703 C132.19774305 110.68454843 135.10319544 109.97766196 138.01171875 109.25146484 C139.08647461 108.98857666 140.16123047 108.72568848 141.26855469 108.45483398 C150.45811154 106.19196203 159.61549637 103.80562223 168.77197266 101.41308594 C180.89015456 98.25402052 193.06770293 95.38644438 205.26585388 92.55508423 C207.30387281 92.08187125 209.34176244 91.60810444 211.37963867 91.13427734 C214.03938342 90.51587786 216.69975718 89.90029559 219.3605957 89.28662109 C226.58386881 87.63083107 226.58386881 87.63083107 233.734375 85.69287109 C237.23663476 84.68603163 239.94612187 84.48067246 243.57421875 84.87646484 C249.11268029 87.95338792 249.11268029 87.95338792 250.57421875 90.87646484 C250.84765625 92.86474609 250.84765625 92.86474609 250.94921875 95.18896484 C250.99820312 95.94822266 251.0471875 96.70748047 251.09765625 97.48974609 C250.30310376 101.11266828 248.38045788 102.52529152 245.57421875 104.87646484 C242.53515625 106.62255859 242.53515625 106.62255859 238.94921875 108.31396484 C231.88740528 111.68281418 224.95046313 115.26702853 218.01953125 118.89599609 C206.43937496 124.92821474 194.78840998 130.81168586 183.10546875 136.64208984 C182.25458302 137.06680132 181.40369728 137.49151279 180.52702713 137.92909431 C174.37751705 140.99774798 168.22606644 144.06250081 162.07421875 147.12646484 C155.88179038 150.2107104 149.69010593 153.29643297 143.50010681 156.38555145 C141.07810649 157.5933981 138.65488494 158.79876622 136.23156738 160.00396729 C125.9533464 165.12620101 115.77300515 170.41747688 105.6257782 175.79415131 C96.06571118 180.83762687 88.04742384 185.05670997 76.96936035 182.20620728 C74.3173472 181.24783729 71.73919054 180.18633011 69.15234375 179.06396484 C67.70368927 178.4635009 67.70368927 178.4635009 66.22576904 177.85090637 C63.0840986 176.54396733 59.95450449 175.21041236 56.82421875 173.87646484 C54.62190149 172.95485452 52.41876497 172.03519967 50.21484375 171.11743164 C45.76375289 169.26140774 41.31680424 167.39597266 36.87304688 165.52246094 C31.30215089 163.17693704 25.71741113 160.86762682 20.12109375 158.58349609 C19.31592316 158.25483551 18.51075256 157.92617493 17.68118286 157.58755493 C16.09314148 156.93971704 14.50501823 156.29207981 12.91680908 155.64465332 C2.0917629 151.22844288 -8.71227714 146.76348448 -19.49609375 142.24755859 C-21.36063418 141.46840318 -23.2252172 140.68934969 -25.08984375 139.91040039 C-28.62657301 138.43291609 -32.15990777 136.94769968 -35.69140625 135.45776367 C-44.49158917 131.76696943 -53.20356453 128.38827088 -62.42578125 125.87646484 C-63.36768311 125.58775513 -63.36768311 125.58775513 -64.32861328 125.29321289 C-76.17563713 122.93897893 -88.76579384 125.61912899 -100.42578125 127.81396484 C-102.73196265 128.23470351 -105.03882297 128.65149726 -107.34594727 129.06703186 C-108.76251538 129.32356033 -110.17843633 129.58370324 -111.59350586 129.84837341 C-116.20840741 130.70270212 -120.74918468 131.29189027 -125.42578125 131.87646484 C-125.42578125 98.54646484 -125.42578125 65.21646484 -125.42578125 30.87646484 C-106.83122463 21.57918654 -106.83122463 21.57918654 -100.54296875 18.50927734 C-99.80305695 18.14763992 -99.06314514 17.7860025 -98.30081177 17.41340637 C-72.04978041 4.59603295 -72.04978041 4.59603295 -59.42578125 -1.18603516 C-58.13003174 -1.78424072 -58.13003174 -1.78424072 -56.80810547 -2.39453125 C-38.32138637 -10.74936126 -18.72785732 -4.59438461 0 0 Z " fill="#FECDBE" transform="translate(223.42578125,314.12353515625)"/>
<path d="M0 0 C5.13428603 4.20077948 6.42352098 8.16205507 7.9375 14.5 C9.80178831 21.82367021 12.39195175 28.26001571 16.07104492 34.85839844 C18.34365617 39.01245633 19.54727055 42.50275207 19.75 47.25 C18.8125 49.6875 18.8125 49.6875 17.75 51.25 C19.18334578 52.87866544 20.62182979 54.50280994 22.0625 56.125 C22.86300781 57.02992188 23.66351563 57.93484375 24.48828125 58.8671875 C26.70811057 61.38212311 26.70811057 61.38212311 29.75 63.25 C30.6575 62.899375 31.565 62.54875 32.5 62.1875 C36.08852677 61.15234805 37.56091963 61.5106101 40.86328125 63.13671875 C42.91012116 64.34448143 44.81328196 65.68535903 46.75 67.0625 C55.05328128 72.74369246 64.70595585 75.79469183 74.375 78.25 C80.113362 79.79319792 82.73821841 81.11881655 85.75 86.25 C87.28597454 89.32194908 86.9765038 91.85244293 86.75 95.25 C84.89537673 100.50476593 82.49444756 102.47727091 77.75 105.25 C74.48046875 106.234375 74.48046875 106.234375 70.9375 107 C48.92903107 112.35460369 30.82253464 125.46878865 18.5 144.5 C12.60771863 154.52638202 8.80150203 165.22866384 5.8046875 176.4453125 C4.32802527 180.3721402 2.50732626 183.37794336 -1.328125 185.28125 C-6.18387516 186.32925363 -9.72932225 186.30440919 -14.42578125 184.66015625 C-19.53898553 180.7075508 -21.03797255 174.15534954 -22.5625 168.1875 C-28.86363765 145.48807204 -43.13943458 127.4001069 -63.27392578 115.35302734 C-71.99467772 110.4851799 -81.54791245 107.66971981 -91.2265625 105.40234375 C-95.45601764 103.79034211 -98.20983767 101.33032465 -100.24609375 97.2578125 C-101.39145194 92.37230235 -101.38503498 88.96486891 -99.25 84.25 C-95.16758972 79.23446738 -90.57142759 78.39027317 -84.41430664 76.90063477 C-72.03469392 73.81660141 -61.09145978 68.39254526 -51.25 60.25 C-50.41082031 59.58484375 -49.57164062 58.9196875 -48.70703125 58.234375 C-34.14613427 46.0438566 -25.58233865 29.14804415 -21.0222168 10.97143555 C-19.86449305 6.54434653 -18.420451 3.56287361 -15.25 0.25 C-10.12778622 -2.65720242 -5.17576791 -2.78695195 0 0 Z " fill="#010100" transform="translate(352.25,74.75)"/>
<path d="M0 0 C1.485 0.99 1.485 0.99 3 2 C5.49521067 2.2021901 7.88122888 2.29058037 10.37719727 2.28710938 C11.49957291 2.29735893 11.49957291 2.29735893 12.6446228 2.30781555 C14.26843322 2.3214004 15.89228638 2.33045572 17.51614571 2.33552551 C20.0836649 2.34380566 22.6508269 2.36430061 25.21824646 2.38806152 C31.59317522 2.44451077 37.96819052 2.47972481 44.34326172 2.51568604 C49.73196116 2.54688327 55.12048692 2.58603411 60.50904655 2.63594055 C63.04288387 2.6560632 65.57658818 2.66433863 68.11048889 2.67224121 C69.65773001 2.68520855 71.20496663 2.69872812 72.75219727 2.71289062 C73.46030045 2.71190872 74.16840363 2.71092682 74.89796448 2.70991516 C79.77231037 2.77231037 79.77231037 2.77231037 82 5 C82.25168228 7.36447144 82.25168228 7.36447144 82.25396729 10.39013672 C82.25960693 11.53432068 82.26524658 12.67850464 82.27105713 13.85736084 C82.26700867 15.11872864 82.26296021 16.38009644 82.25878906 17.6796875 C82.26149803 19.01662385 82.26505843 20.35355871 82.26940918 21.69049072 C82.27854675 25.32679129 82.27498334 28.9629787 82.26865101 32.59928131 C82.26359807 36.39936129 82.26828049 40.19943138 82.27142334 43.99951172 C82.27506505 50.38185369 82.27025853 56.76414942 82.26074219 63.14648438 C82.24985723 70.53214409 82.25338266 77.91769341 82.264395 85.30335045 C82.27346205 91.63713719 82.27475601 97.97089064 82.26951766 104.30468178 C82.26639474 108.09081457 82.26599739 111.87689542 82.27259064 115.6630249 C82.27835505 119.22199438 82.27438396 122.78082108 82.26280212 126.33977509 C82.25888278 128.2740611 82.2648489 130.20835914 82.27105713 132.14263916 C82.26541748 133.28682312 82.25977783 134.43100708 82.25396729 135.60986328 C82.25321323 136.60833282 82.25245918 137.60680237 82.25168228 138.63552856 C82 141 82 141 80 143 C77.54789508 143.20672358 75.20620373 143.29051226 72.75219727 143.28710938 C72.00569916 143.29394241 71.25920105 143.30077545 70.49008179 143.30781555 C68.86680179 143.32142017 67.24347872 143.33046277 65.62014961 143.33552551 C63.05243517 143.34379499 60.48507977 143.36428142 57.91746521 143.38806152 C52.4658632 143.43635461 47.01422548 143.46924729 41.5625 143.5 C35.24980936 143.53563437 28.93729365 143.57751949 22.62476921 143.63594055 C20.09264205 143.65604173 17.56064805 143.66433555 15.02845764 143.67224121 C13.47803257 143.68521212 11.92761195 143.69873221 10.37719727 143.71289062 C9.67111832 143.71190872 8.96503937 143.71092682 8.23756409 143.70991516 C4.60032204 143.75627228 3.11616566 143.92255622 0 146 C-1.75197267 144.24802733 -1.12613706 141.79911392 -1.12698364 139.41967773 C-1.12980347 138.20811005 -1.13262329 136.99654236 -1.13552856 135.7482605 C-1.13358397 134.39337143 -1.13153578 133.03848252 -1.12939453 131.68359375 C-1.13074854 130.26636714 -1.13252847 128.84914087 -1.13470459 127.43191528 C-1.13927899 123.57251759 -1.13748934 119.71314651 -1.1343255 115.85374832 C-1.13180193 111.8236407 -1.13413943 107.79353544 -1.13571167 103.76342773 C-1.13753338 96.9942992 -1.13512703 90.22518157 -1.13037109 83.45605469 C-1.12492847 75.61883515 -1.12669113 67.78164163 -1.1321975 59.94442272 C-1.1367286 53.22766744 -1.13737919 46.51092002 -1.13475883 39.7941637 C-1.13319604 35.77723069 -1.13300234 31.76030992 -1.13629532 27.74337769 C-1.139174 23.96778006 -1.13719841 20.19221613 -1.13140106 16.41662216 C-1.13007344 15.02701753 -1.13046761 13.63741008 -1.13266373 12.24780655 C-1.13537513 10.35864612 -1.1313805 8.46947953 -1.12698364 6.58032227 C-1.12660662 5.52063736 -1.12622959 4.46095245 -1.12584114 3.36915588 C-1 1 -1 1 0 0 Z " fill="#F69494" transform="translate(1,323)"/>
<path d="M0 0 C2.26275762 3.39413644 3.73710837 6.9477055 5.3125 10.6875 C9.49698837 20.56117146 9.49698837 20.56117146 16 29 C17.24007812 28.75765625 18.48015625 28.5153125 19.7578125 28.265625 C21.91894531 27.93554688 21.91894531 27.93554688 24 28 C26.47412598 29.92225327 27.98789918 31.36401046 29.875 33.75 C30.34679687 34.30171875 30.81859375 34.8534375 31.3046875 35.421875 C33.36722788 37.85942273 35.22831634 40.34247451 37 43 C36.67 43.33 36.34 43.66 36 44 C35.49830585 46.83073436 35.49830585 46.83073436 36 50 C44.92000146 60.14589678 57.55637438 64.7829048 70 69 C67.30057787 71.69942213 64.09406692 72.74794707 60.625 74.1875 C33.4432521 85.86328935 14.61690213 105.38664066 3.41015625 132.69921875 C2 136 2 136 0 139 C-0.25652344 138.319375 -0.51304687 137.63875 -0.77734375 136.9375 C-6.15348724 123.32517709 -13.08226101 110.84384365 -23 100 C-23.76957031 99.14921875 -24.53914063 98.2984375 -25.33203125 97.421875 C-37.74200124 84.35030726 -53.26306187 76.20886414 -70 70 C-67.37117897 68.24745265 -65.00196323 67.18868868 -62.06347656 66.09838867 C-37.89060984 57.07770805 -17.78001993 39.30432749 -7.0234375 15.76171875 C-5.79550233 12.99979392 -4.60851896 10.22332959 -3.4453125 7.43359375 C-2.37585434 4.89290802 -1.27819961 2.43850703 0 0 Z " fill="#EDCE6E" transform="translate(345,97)"/>
<path d="M0 0 C2.63408379 2.13235354 3.44882874 2.84398327 3.8984375 6.11328125 C3.93195313 6.88027344 3.96546875 7.64726562 4 8.4375 C4.04898438 9.19675781 4.09796875 9.95601563 4.1484375 10.73828125 C3.35388501 14.36120343 1.43123913 15.77382667 -1.375 18.125 C-4.4140625 19.87109375 -4.4140625 19.87109375 -8 21.5625 C-15.06181347 24.93134933 -21.99875562 28.51556369 -28.9296875 32.14453125 C-40.50984379 38.17674989 -52.16080877 44.06022102 -63.84375 49.890625 C-64.69463573 50.31533648 -65.54552147 50.74004795 -66.42219162 51.17762947 C-72.5717017 54.24628313 -78.72315231 57.31103597 -84.875 60.375 C-91.06742837 63.45924555 -97.25911282 66.54496813 -103.44911194 69.63408661 C-105.87111226 70.84193326 -108.29433381 72.04730138 -110.71765137 73.25250244 C-120.27259087 78.01428305 -129.74865432 82.91025337 -139.18225098 87.90814209 C-158.46507895 98.11662941 -158.46507895 98.11662941 -167.375 96.125 C-174.19342014 93.8448764 -180.80304121 91.02998928 -187.375 88.125 C-187.375 87.795 -187.375 87.465 -187.375 87.125 C-186.8254213 87.02911591 -186.27584259 86.93323181 -185.70960999 86.83444214 C-179.8322123 85.68674276 -175.01419075 83.74615231 -169.74609375 80.9453125 C-168.91120926 80.51323486 -168.07632477 80.08115723 -167.21614075 79.63598633 C-165.38219708 78.68599816 -163.55059501 77.73147918 -161.72106934 76.77301025 C-156.56951904 74.0755109 -151.39925074 71.41428986 -146.23046875 68.75 C-145.0913504 68.16195587 -143.95223206 67.57391174 -142.77859497 66.9680481 C-132.86649313 61.85922885 -122.9025601 56.85612212 -112.92578125 51.875 C-111.73383306 51.279844 -111.73383306 51.279844 -110.5178051 50.67266464 C-103.31474059 47.07706151 -96.10907554 43.48668345 -88.90231323 39.89849854 C-84.37668599 37.64506841 -79.85186195 35.39003508 -75.328125 33.1328125 C-74.61254551 32.77576044 -73.89696602 32.41870838 -73.1597023 32.05083656 C-62.79779168 26.87651684 -52.50235545 21.59389822 -42.28672791 16.13539124 C-37.6815425 13.70144707 -33.02638601 11.36351696 -28.37890625 9.01171875 C-25.24383207 7.04261494 -23.53419149 5.09636444 -21.375 2.125 C-15.06794936 -2.00720559 -6.68094559 -3.71163644 0 0 Z " fill="#FCAE9C" transform="translate(470.375,400.875)"/>
<path d="M0 0 C4.30637389 1.48031602 5.9139336 4.58049533 8 8.375 C8.52219116 9.30795898 8.52219116 9.30795898 9.05493164 10.25976562 C19.32065051 29.16157157 18.62737053 48.35231418 12.8046875 68.46533203 C10.05777521 77.11777239 6.45214781 85.69702083 1 93 C0.34 93 -0.32 93 -1 93 C-2.41015625 91.1640625 -2.41015625 91.1640625 -4.0625 88.625 C-16.51539057 70.39499525 -33.09171836 56.89965715 -53.98510742 49.85058594 C-58.9093192 48.18136161 -58.9093192 48.18136161 -60 46 C-59.00742187 45.6596875 -58.01484375 45.319375 -56.9921875 44.96875 C-32.59539653 36.37074867 -14.26024643 21.76812452 0 0 Z " fill="#F4DD7E" transform="translate(335,120)"/>
<path d="M0 0 C9.61384418 -0.04627741 19.22765021 -0.08184573 28.84158134 -0.10362434 C33.30539755 -0.11407534 37.76913772 -0.12825844 42.23291016 -0.15087891 C46.53820674 -0.17256052 50.84343005 -0.1845587 55.14877701 -0.18975449 C56.79387694 -0.19345869 58.43897273 -0.20069177 60.0840416 -0.21146011 C62.38277704 -0.22591299 64.68120713 -0.22798058 66.97998047 -0.22705078 C68.2901413 -0.231492 69.60030212 -0.23593323 70.95016479 -0.24050903 C74 0 74 0 76 2 C76.25168228 4.36447144 76.25168228 4.36447144 76.25396729 7.39013672 C76.25960693 8.53432068 76.26524658 9.67850464 76.27105713 10.85736084 C76.26700867 12.11872864 76.26296021 13.38009644 76.25878906 14.6796875 C76.26149803 16.01662385 76.26505843 17.35355871 76.26940918 18.69049072 C76.27854675 22.32679129 76.27498334 25.9629787 76.26865101 29.59928131 C76.26359807 33.39936129 76.26828049 37.19943138 76.27142334 40.99951172 C76.27506505 47.38185369 76.27025853 53.76414942 76.26074219 60.14648438 C76.24985723 67.53214409 76.25338266 74.91769341 76.264395 82.30335045 C76.27346205 88.63713719 76.27475601 94.97089064 76.26951766 101.30468178 C76.26639474 105.09081457 76.26599739 108.87689542 76.27259064 112.6630249 C76.27835505 116.22199438 76.27438396 119.78082108 76.26280212 123.33977509 C76.25888278 125.2740611 76.2648489 127.20835914 76.27105713 129.14263916 C76.26541748 130.28682312 76.25977783 131.43100708 76.25396729 132.60986328 C76.25321323 133.60833282 76.25245918 134.60680237 76.25168228 135.63552856 C76 138 76 138 74 140 C70.95016479 140.24050903 70.95016479 140.24050903 66.97998047 140.22705078 C66.25792419 140.22734283 65.53586792 140.22763489 64.79193115 140.22793579 C62.40022858 140.22654008 60.00883579 140.21096783 57.6171875 140.1953125 C55.9609494 140.19158322 54.30470911 140.18873585 52.64846802 140.18673706 C48.2852776 140.17909389 43.92221993 140.1594396 39.55908203 140.1373291 C35.10841671 140.11688535 30.65772997 140.1077385 26.20703125 140.09765625 C17.47129319 140.07619429 8.7356631 140.04205018 0 140 C0 139.67 0 139.34 0 139 C17.49 138.67 34.98 138.34 53 138 C53.33 92.79 53.66 47.58 54 1 C36.18 1 18.36 1 0 1 C0 0.67 0 0.34 0 0 Z " fill="#F27B7B" transform="translate(7,326)"/>
<path d="M0 0 C3.62416894 1.64734952 6.12851416 3.45402683 8 7 C8.7626858 13.49094297 6.73852626 17.02361232 3.3125 22.25 C2.81049072 23.01997314 2.30848145 23.78994629 1.79125977 24.58325195 C0.72476297 26.2168555 -0.34539603 27.84807322 -1.41894531 29.47705078 C-2.98803081 31.9809003 -4.35445307 34.52831654 -5.7109375 37.15234375 C-10.65350081 46.1901242 -15.01291852 51.52371965 -25.12182617 54.54614258 C-29.65545687 55.65849903 -34.199963 56.59189851 -38.79492188 57.41308594 C-42.50346286 58.09219414 -46.13572844 58.96601972 -49.79077148 59.88452148 C-52.27791561 60.50698652 -54.77118833 61.09219834 -57.26953125 61.66796875 C-61.09154302 62.55125043 -64.90810319 63.45505567 -68.72195435 64.37295532 C-71.44929538 65.0285634 -74.17798726 65.67843883 -76.90686035 66.32763672 C-78.2479656 66.64785734 -79.58855559 66.97024457 -80.92858887 67.29492188 C-82.81414953 67.75113835 -84.70196829 68.19799041 -86.58984375 68.64453125 C-87.68159912 68.90596924 -88.77335449 69.16740723 -89.89819336 69.43676758 C-94.66361093 70.30208189 -98.56170679 70.66711198 -102.8671875 68.25 C-103.52460938 67.8890625 -104.18203125 67.528125 -104.859375 67.15625 C-105.85710937 66.58390625 -105.85710937 66.58390625 -106.875 66 C-107.90753906 65.42765625 -107.90753906 65.42765625 -108.9609375 64.84375 C-110.64692745 63.90708892 -112.32436814 62.95506752 -114 62 C-114 61.34 -114 60.68 -114 60 C-109.58453891 58.76648458 -105.16779401 57.53763143 -100.75 56.3125 C-99.75844406 56.0374765 -99.75844406 56.0374765 -98.74685669 55.75689697 C-90.66940847 53.52024608 -82.58247804 51.35449671 -74.4375 49.375 C-67.67901193 47.70772009 -60.94700903 45.96286054 -54.25 44.0625 C-53.43974365 43.84577637 -52.6294873 43.62905273 -51.79467773 43.40576172 C-43.09019164 40.86638604 -37.16514997 35.91941633 -31.875 28.6875 C-30.94462107 27.46338763 -30.01222678 26.24080514 -29.078125 25.01953125 C-28.58763672 24.3745166 -28.09714844 23.72950195 -27.59179688 23.06494141 C-24.67273292 19.27821703 -21.65213668 15.57549739 -18.625 11.875 C-18.04218262 11.15272217 -17.45936523 10.43044434 -16.85888672 9.6862793 C-8.09578701 -1.01197338 -8.09578701 -1.01197338 0 0 Z " fill="#F9E9E1" transform="translate(440,342)"/>
<path d="M0 0 C2.90188825 0.53939563 5.79417331 1.10526541 8.6875 1.6875 C9.91243164 1.91083008 9.91243164 1.91083008 11.16210938 2.13867188 C16.47487115 3.23563888 19.58698453 4.50164561 23 9 C23.66544424 13.14054195 23.47668141 15.17497448 21.375 18.8125 C15.88653552 23.86766465 8.87080967 23.39159247 1.8125 23.59765625 C0.71897217 23.63684677 -0.37455566 23.67603729 -1.5012207 23.71641541 C-5.00058414 23.8401207 -8.50020698 23.95168288 -12 24.0625 C-14.29169544 24.1404345 -16.58336268 24.21920288 -18.875 24.29882812 C-20.56532349 24.35712296 -20.56532349 24.35712296 -22.28979492 24.41659546 C-24.55042286 24.49547866 -26.81100332 24.57573441 -29.0715332 24.65737915 C-34.52023195 24.8530449 -39.96692356 25.02543642 -45.41796875 25.14013672 C-47.40365411 25.19599554 -49.38933165 25.25213345 -51.375 25.30859375 C-52.72984497 25.3244326 -52.72984497 25.3244326 -54.11206055 25.34059143 C-58.24692486 25.47588794 -60.46903232 25.66690477 -64.04370117 27.90942383 C-66.09694709 30.10360139 -66.77721948 31.33028806 -67.3125 34.25 C-67.6528125 36.10625 -67.6528125 36.10625 -68 38 C-68.04125 37.38125 -68.0825 36.7625 -68.125 36.125 C-68.41375 35.42375 -68.7025 34.7225 -69 34 C-71.68518121 32.90365835 -71.68518121 32.90365835 -75 32 C-77.66273469 30.81825167 -80.23369471 29.47855829 -82.8125 28.125 C-83.49248047 27.78597656 -84.17246094 27.44695312 -84.87304688 27.09765625 C-89.7549129 24.53747526 -89.7549129 24.53747526 -90.88549805 22.05810547 C-91 20 -91 20 -89.91539001 18.40214539 C-87.12135485 16.3567951 -84.90863858 16.57347847 -81.46826172 16.50756836 C-80.479795 16.48246941 -80.479795 16.48246941 -79.47135925 16.4568634 C-77.29087387 16.40456128 -75.11054752 16.37251729 -72.9296875 16.33984375 C-71.4085037 16.30560855 -69.88735405 16.26982397 -68.36624146 16.2325592 C-64.355293 16.13729299 -60.34420731 16.05794931 -56.33282471 15.98345947 C-49.93405958 15.86380738 -43.53574351 15.728024 -37.13763809 15.57730293 C-34.91278468 15.52834707 -32.68794949 15.49096668 -30.46286011 15.45457458 C-16.30317219 15.32784313 -16.30317219 15.32784313 -4 9 C-1.85453353 6.0407359 -0.81315643 3.52119113 0 0 Z " fill="#FBAD9B" transform="translate(318,336)"/>
<path d="M0 0 C3.62416894 1.64734952 6.12851416 3.45402683 8 7 C8.76282462 13.49212444 6.73747751 17.02224996 3.3125 22.25 C2.56383667 23.40387207 2.56383667 23.40387207 1.80004883 24.58105469 C0.73747462 26.21456675 -0.32978734 27.84503767 -1.40136719 29.47265625 C-2.99669814 31.99477996 -4.42882067 34.56484354 -5.8515625 37.1875 C-10.80489343 45.88487849 -14.78818979 51.44352753 -24.66088867 54.44238281 C-35.04974197 57 -35.04974197 57 -40 57 C-39.3559111 53.44801649 -37.89239351 51.02541404 -35.90234375 48.03515625 C-35.2688501 47.07593262 -34.63535645 46.11670898 -33.98266602 45.12841797 C-33.30776123 44.11666504 -32.63285645 43.10491211 -31.9375 42.0625 C-30.56940472 39.98367005 -29.20221101 37.90424648 -27.8359375 35.82421875 C-27.17561523 34.82181152 -26.51529297 33.8194043 -25.83496094 32.78662109 C-23.55763735 29.32821617 -21.28324691 25.87004146 -19.0625 22.375 C-18.45535156 21.43398438 -17.84820312 20.49296875 -17.22265625 19.5234375 C-15.88985193 16.77266565 -15.7332044 15.01642372 -16 12 C-16.99 12.66 -17.98 13.32 -19 14 C-17.49559933 10.57592139 -15.49408648 8.08625426 -13 5.3125 C-12.29875 4.52488281 -11.5975 3.73726563 -10.875 2.92578125 C-7.47724702 -0.5639942 -4.76253213 -0.32288353 0 0 Z " fill="#FBE1D6" transform="translate(440,342)"/>
<path d="M0 0 C2.0625 2.125 2.0625 2.125 3 5 C2.83458098 11.44894427 0.72503737 14.11778366 -3.71484375 18.3359375 C-4.28578262 18.90075836 -4.8567215 19.46557922 -5.44496155 20.04751587 C-7.26217043 21.83790322 -9.09944094 23.60605176 -10.9375 25.375 C-12.16993694 26.58590047 -13.40107181 27.79812767 -14.63085938 29.01171875 C-24.62220369 38.81629382 -24.62220369 38.81629382 -28.8125 39.375 C-32 39 -32 39 -34.875 36.875 C-37 34 -37 34 -37.75 31.1875 C-35.75495922 22.70857667 -25.66282873 15.51175457 -19.6875 9.5625 C-18.78193359 8.65306641 -17.87636719 7.74363281 -16.94335938 6.80664062 C-16.07904297 5.94361328 -15.21472656 5.08058594 -14.32421875 4.19140625 C-13.54135498 3.40967041 -12.75849121 2.62793457 -11.9519043 1.82250977 C-8.23817643 -1.64502976 -4.72436664 -1.3883853 0 0 Z " fill="#000000" transform="translate(463,47)"/>
<path d="M0 0 C3.87620962 0.77584836 6.09553708 3.30878319 8.75900269 6.08181763 C9.63740562 6.95585487 9.63740562 6.95585487 10.53355408 7.84754944 C11.76237898 9.07968252 12.98137278 10.32169017 14.19088745 11.57278442 C16.0389549 13.47879417 17.92153821 15.34463683 19.81173706 17.20877075 C21.00473138 18.41424122 22.1955634 19.62185625 23.38400269 20.83181763 C23.94433701 21.38628067 24.50467133 21.94074371 25.08198547 22.51200867 C28.67710634 26.28433721 30.01987809 29.01259107 30.10665894 34.42166138 C28.66915894 37.35916138 28.66915894 37.35916138 26.10665894 39.42166138 C22.7218926 40.09861464 21.29142521 40.33389929 18.10665894 39.42166138 C16.27120972 38.1423645 16.27120972 38.1423645 14.42697144 36.45291138 C13.73410034 35.81965942 13.04122925 35.18640747 12.32736206 34.53396606 C8.40451914 30.80260756 4.55044041 27.00931657 0.73165894 23.17166138 C-0.07400513 22.3698645 -0.87966919 21.56806763 -1.70974731 20.74197388 C-2.86410278 19.58568481 -2.86410278 19.58568481 -4.04177856 18.40603638 C-4.73448853 17.71219849 -5.42719849 17.0183606 -6.14089966 16.30349731 C-8.51204096 13.7572787 -9.81293762 12.03808776 -10.26834106 8.54666138 C-9.48536899 2.0218941 -6.48771382 -0.19561085 0 0 Z " fill="#000000" transform="translate(435.8933410644531,247.57833862304688)"/>
<path d="M0 0 C2.4864757 1.62765993 4.5044478 3.61517778 6.58984375 5.72265625 C7.17923233 6.30156113 7.76862091 6.880466 8.37586975 7.47691345 C9.61268196 8.70092514 10.84186396 9.93268972 12.0637207 11.17163086 C13.9324498 13.05740374 15.83547226 14.90281229 17.74414062 16.74804688 C18.94497054 17.94565265 20.14361604 19.14545355 21.33984375 20.34765625 C21.90847641 20.89382095 22.47710907 21.43998566 23.06297302 22.00270081 C25.95090778 24.99524301 27.35816152 27.01795356 27.48266602 31.25561523 C27 35 27 35 24.9375 37.5625 C20.93015055 39.52354335 19.25506447 39.370275 15 38 C8.64141299 33.28081804 3.13363785 27.28601445 -2.4375 21.6875 C-3.25154297 20.87732422 -4.06558594 20.06714844 -4.90429688 19.23242188 C-5.67708984 18.45833984 -6.44988281 17.68425781 -7.24609375 16.88671875 C-8.29301392 15.83810669 -8.29301392 15.83810669 -9.36108398 14.76831055 C-12.18789633 11.71831773 -12.4077623 9.1235003 -12.33984375 4.98046875 C-12 3 -12 3 -9.9375 0.4375 C-6.02627314 -1.47650463 -4.20272225 -1.06808755 0 0 Z " fill="#000000" transform="translate(237,47)"/>
<path d="M0 0 C2.4375 1.5625 2.4375 1.5625 4 4 C4.6875 7.25 4.6875 7.25 4 11 C2.75097656 12.74707031 2.75097656 12.74707031 1.078125 14.578125 C0.44350342 15.27518555 -0.19111816 15.97224609 -0.8449707 16.69042969 C-1.91171021 17.83366699 -1.91171021 17.83366699 -3 19 C-3.76594482 19.83176758 -4.53188965 20.66353516 -5.32104492 21.52050781 C-7.82894572 24.21162171 -10.37802221 26.85795841 -12.9375 29.5 C-13.79279297 30.4178125 -14.64808594 31.335625 -15.52929688 32.28125 C-22.65551497 39.58684658 -22.65551497 39.58684658 -27.47265625 39.6875 C-31 39 -31 39 -33.5 37.5 C-35.57494815 34.04175309 -35.73805361 30.88756221 -35 27 C-33.5031639 24.44738674 -31.53755075 22.57497848 -29.3828125 20.56640625 C-28.81045868 20.00300034 -28.23810486 19.43959442 -27.64840698 18.8591156 C-25.82525184 17.07392798 -23.97594838 15.31880582 -22.125 13.5625 C-20.88755426 12.35663002 -19.65185619 11.14896384 -18.41796875 9.93945312 C-7.54688942 -0.65059392 -7.54688942 -0.65059392 0 0 Z " fill="#000000" transform="translate(260,248)"/>
<path d="M0 0 C0.99 0.03287109 0.99 0.03287109 2 0.06640625 C2.66 0.06511719 3.32 0.06382813 4 0.0625 C7.04372692 0.92449298 8.09032376 2.08617331 10 4.62890625 C10.60326315 7.69869083 10.56050543 10.72722217 10.53125 13.84765625 C10.5350769 14.74254761 10.53890381 15.63743896 10.54284668 16.55944824 C10.5455652 18.44898607 10.53820816 20.33856157 10.52148438 22.22802734 C10.50007323 25.11901815 10.52128734 28.00752392 10.546875 30.8984375 C10.54423171 32.73568256 10.53910671 34.57292608 10.53125 36.41015625 C10.53934692 37.27378784 10.54744385 38.13741943 10.55578613 39.02722168 C10.46281924 44.98215241 10.46281924 44.98215241 8.18164062 48.16992188 C4.92435127 50.34825236 2.8279224 50.23331505 -1 49.62890625 C-3.68744389 47.64345957 -5.65805217 46.05788512 -6.46047974 42.70458984 C-6.64519436 40.38348257 -6.66693965 38.11332602 -6.62890625 35.78515625 C-6.63131821 34.9384436 -6.63373016 34.09173096 -6.63621521 33.21936035 C-6.63523831 31.43411564 -6.62188197 29.64884005 -6.59692383 27.86376953 C-6.5626056 25.13729545 -6.57627335 22.41406313 -6.59570312 19.6875 C-6.58880433 17.94920501 -6.57913165 16.21091835 -6.56640625 14.47265625 C-6.57136612 13.66107056 -6.57632599 12.84948486 -6.58143616 12.01330566 C-6.49889577 8.02974104 -6.27531912 6.06318917 -4.08959961 2.61547852 C-2 0.62890625 -2 0.62890625 0 0 Z " fill="#000000" transform="translate(343,-0.62890625)"/>
<path d="M0 0 C0.89489136 -0.0038269 1.78978271 -0.00765381 2.71179199 -0.01159668 C4.60132982 -0.0143152 6.49090532 -0.00695816 8.38037109 0.00976562 C11.2713619 0.03117677 14.15986767 0.00996266 17.05078125 -0.015625 C18.88802631 -0.01298171 20.72526983 -0.00785671 22.5625 0 C23.85794739 -0.01214539 23.85794739 -0.01214539 25.17956543 -0.02453613 C31.16565411 0.06891719 31.16565411 0.06891719 34.32202148 2.43945312 C35.89147595 4.68925836 36.34905837 5.81336256 36.34375 8.53125 C36.36566406 9.19125 36.38757813 9.85125 36.41015625 10.53125 C35.39708131 13.75295414 33.59984914 14.74034877 30.78125 16.53125 C27.90056669 17.09712307 25.08452739 17.06899971 22.15625 17.02734375 C21.3317334 17.02879898 20.5072168 17.03025421 19.65771484 17.03175354 C17.9195603 17.03009821 16.18139054 17.01857794 14.44335938 16.99780273 C11.78972832 16.96884253 9.13809628 16.97720183 6.484375 16.99023438 C4.791657 16.98399642 3.09894529 16.97560503 1.40625 16.96484375 C0.61653809 16.96777939 -0.17317383 16.97071503 -0.98681641 16.97373962 C-5.55582157 16.8958729 -8.59611811 16.39202772 -12.21875 13.53125 C-13.76461876 10.43951248 -13.51234521 7.93695448 -13.21875 4.53125 C-9.85417521 -0.58162888 -5.56735107 -0.05219635 0 0 Z " fill="#000000" transform="translate(476.21875,158.46875)"/>
<path d="M0 0 C0.89489136 -0.0038269 1.78978271 -0.00765381 2.71179199 -0.01159668 C4.60132982 -0.0143152 6.49090532 -0.00695816 8.38037109 0.00976562 C11.2713619 0.03117677 14.15986767 0.00996266 17.05078125 -0.015625 C18.88802631 -0.01298171 20.72526983 -0.00785671 22.5625 0 C23.85794739 -0.01214539 23.85794739 -0.01214539 25.17956543 -0.02453613 C31.16565411 0.06891719 31.16565411 0.06891719 34.32202148 2.43945312 C35.89147595 4.68925836 36.34905837 5.81336256 36.34375 8.53125 C36.36566406 9.19125 36.38757813 9.85125 36.41015625 10.53125 C35.39708131 13.75295414 33.59984914 14.74034877 30.78125 16.53125 C27.90056669 17.09712307 25.08452739 17.06899971 22.15625 17.02734375 C21.3317334 17.02879898 20.5072168 17.03025421 19.65771484 17.03175354 C17.9195603 17.03009821 16.18139054 17.01857794 14.44335938 16.99780273 C11.78972832 16.96884253 9.13809628 16.97720183 6.484375 16.99023438 C4.791657 16.98399642 3.09894529 16.97560503 1.40625 16.96484375 C0.61653809 16.96777939 -0.17317383 16.97071503 -0.98681641 16.97373962 C-5.55582157 16.8958729 -8.59611811 16.39202772 -12.21875 13.53125 C-13.76461876 10.43951248 -13.51234521 7.93695448 -13.21875 4.53125 C-9.85417521 -0.58162888 -5.56735107 -0.05219635 0 0 Z " fill="#000000" transform="translate(191.21875,158.46875)"/>
</svg>
